# xmcd
#
# Track frame offsets:
#	150
#	13815
#	28210
#	42410
#	56160
#	70512
#	86037
#	96832
#	111897
#	125215
#
# Disc length: 1917 seconds
#
# Revision: 3
# Processed by: cddbd v1.5.2PL0 Copyright (c) Steve Scherf et al.
# Submitted via: EZCDAudioConverter 6.0.7.1
#
DISCID=8e077b0a
DTITLE=Rogers, Kenny and West, Dottie - Every Time Two Fools Collide
DYEAR=1993
DGENRE=Country
TTITLE0=Every Time Two Fools Collide
TTITLE1=You Needed Me
TTITLE2=All I Ever Need Is You
TTITLE3=What Are We Doin' In Love
TTITLE4=Another Somebody Done Somebody Wrong Song
TTITLE5=Let It Be Me
TTITLE6=Anyone Who Isn't Me Tonight
TTITLE7='Til I Can Make It On My Own
TTITLE8=Together Again
TTITLE9=You've Lost That Lovin' Feeling
EXTD=
EXTT0=
EXTT1=
EXTT2=
EXTT3=
EXTT4=
EXTT5=
EXTT6=
EXTT7=
EXTT8=
EXTT9=
PLAYORDER=
